<?xml version="1.0" encoding="UTF-8" standalone="no"?>
<svg
   xmlns:dc="http://purl.org/dc/elements/1.1/"
   xmlns:cc="http://creativecommons.org/ns#"
   xmlns:rdf="http://www.w3.org/1999/02/22-rdf-syntax-ns#"
   xmlns:svg="http://www.w3.org/2000/svg"
   xmlns="http://www.w3.org/2000/svg"
   id="svg1098"
   version="1.1"
   viewBox="0 0 79.374998 54.239585"
   height="205"
   width="300">
  <defs
     id="defs1092" />
  <metadata
     id="metadata1095">
    <rdf:RDF>
      <cc:Work
         rdf:about="">
        <dc:format>image/svg+xml</dc:format>
        <dc:type
           rdf:resource="http://purl.org/dc/dcmitype/StillImage" />
        <dc:title></dc:title>
      </cc:Work>
    </rdf:RDF>
  </metadata>
  <g
     transform="translate(0,-242.76039)"
     id="layer1">
    <path
       id="rect4235"
       d="m 257.78894,-27.713305 h 39.17246 v 9.30358 h -39.17246 z"
       style="fill:#364e59;fill-opacity:1;stroke-width:0;stroke-linejoin:miter;stroke-miterlimit:4;stroke-dasharray:none"
       transform="rotate(90)" />
    <path
       id="rect4237"
       d="M -2.713806e-7,272.73923 H 46.083709 v 9.30358 H -2.713806e-7 Z"
       style="fill:#364e59;fill-opacity:1;stroke-width:0;stroke-linejoin:miter;stroke-miterlimit:4;stroke-dasharray:none" />
    <path
       style="fill:#0e232e;fill-opacity:1;stroke-width:0;stroke-linejoin:miter;stroke-miterlimit:4;stroke-dasharray:none"
       d="m 46.096811,257.79982 a 19.59119,19.59119 0 0 0 -19.591191,19.59119 19.59119,19.59119 0 0 0 19.591191,19.59118 v -9.30357 a 10.287611,10.287611 0 0 1 -9.174984,-5.63583 h 9.161703 v -9.30358 h -9.150521 a 10.287611,10.287611 0 0 1 9.163802,-5.63581 z"
       id="path4239" />
    <path
       id="path4241"
       d="M 0.02620071,257.79982 A 19.59119,19.59119 0 0 1 19.617392,277.39101 19.59119,19.59119 0 0 1 0.02620071,296.98219 v -9.30357 A 10.287611,10.287611 0 0 0 10.313812,277.39101 10.287611,10.287611 0 0 0 0.02620071,267.1034 Z"
       style="fill:#0e232e;fill-opacity:1;stroke-width:0;stroke-linejoin:miter;stroke-miterlimit:4;stroke-dasharray:none" />
    <path
       id="rect4243"
       d="m 257.78894,-59.515446 h 39.17246 v 9.30358 h -39.17246 z"
       style="fill:#0e232e;fill-opacity:1;stroke-width:0;stroke-linejoin:miter;stroke-miterlimit:4;stroke-dasharray:none"
       transform="rotate(90)" />
    <path
       id="rect4245"
       d="m 286.66541,-204.76204 h 43.56039 v 10.10989 h -43.56039 z"
       style="fill:#0e232e;fill-opacity:1;stroke-width:0;stroke-linejoin:miter;stroke-miterlimit:4;stroke-dasharray:none"
       transform="matrix(-0.43739855,0.89926776,-1,0,0,0)" />
    <path
       d="M 8.4143924,250.88435 H 3.1103643 v 5.33132 H 0.02620394 V 242.96924 H 9.3423699 v 2.36544 H 3.1103643 v 3.18423 h 5.3040281 z"
       style="font-style:normal;font-variant:normal;font-weight:900;font-stretch:normal;font-size:18.63233185px;line-height:1.25;font-family:Roboto;-inkscape-font-specification:'Roboto Heavy';letter-spacing:0px;word-spacing:0px;fill:#f57900;fill-opacity:1;stroke:none;stroke-width:0.35782993px;stroke-linecap:butt;stroke-linejoin:miter;stroke-opacity:1"
       id="path1681" />
    <path
       d="m 13.809399,251.13909 v 5.07658 h -3.08416 v -13.24643 h 5.094778 q 2.301748,0 3.648225,1.06445 1.346477,1.06444 1.346477,2.9113 0,1.02805 -0.545869,1.76498 -0.536771,0.73692 -1.592118,1.20091 1.219107,0.34572 1.746781,1.15542 0.536771,0.80061 0.536771,2.00152 v 0.837 q 0,0.51858 0.154663,1.18272 0.154663,0.66414 0.536771,0.94617 v 0.18196 h -3.16604 q -0.363913,-0.28203 -0.482185,-1.00076 -0.109174,-0.71873 -0.109174,-1.32828 v -0.80061 q 0,-0.94617 -0.50038,-1.44655 -0.50038,-0.50038 -1.464748,-0.50038 z m 0,-2.36544 h 2.028814 q 0.927977,0 1.419259,-0.4185 0.491282,-0.42759 0.491282,-1.2191 0,-0.80971 -0.509477,-1.30099 -0.50038,-0.50038 -1.41926,-0.50038 h -2.010618 z"
       style="font-style:normal;font-variant:normal;font-weight:900;font-stretch:normal;font-size:18.63233185px;line-height:1.25;font-family:Roboto;-inkscape-font-specification:'Roboto Heavy';letter-spacing:0px;word-spacing:0px;fill:#f57900;fill-opacity:1;stroke:none;stroke-width:0.35782993px;stroke-linecap:butt;stroke-linejoin:miter;stroke-opacity:1"
       id="path1683" />
    <path
       d="m 33.342415,251.56668 0.01819,0.0546 q -0.09098,2.32904 -1.382868,3.55725 -1.282793,1.2282 -3.730106,1.2282 -2.456411,0 -3.993942,-1.51024 -1.537531,-1.51023 -1.537531,-3.92116 v -2.76573 q 0,-2.40183 1.473846,-3.91206 1.482945,-1.51934 3.848378,-1.51934 2.510997,0 3.839279,1.2646 1.328281,1.26459 1.50114,3.59364 l -0.0182,0.0546 h -2.993182 q -0.06368,-1.29189 -0.58226,-1.91964 -0.509478,-0.62775 -1.746781,-0.62775 -1.04625,0 -1.646706,0.8461 -0.600456,0.837 -0.600456,2.20167 v 2.78393 q 0,1.37377 0.655043,2.21987 0.655043,0.8461 1.801368,0.8461 1.109934,0 1.573923,-0.59136 0.463989,-0.59136 0.527673,-1.88325 z"
       style="font-style:normal;font-variant:normal;font-weight:900;font-stretch:normal;font-size:18.63233185px;line-height:1.25;font-family:Roboto;-inkscape-font-specification:'Roboto Heavy';letter-spacing:0px;word-spacing:0px;fill:#f57900;fill-opacity:1;stroke:none;stroke-width:0.35782993px;stroke-linecap:butt;stroke-linejoin:miter;stroke-opacity:1"
       id="path1685" />
    <path
       d="m 45.870112,242.96924 v 8.67932 q 0,2.26536 -1.510238,3.51176 -1.50114,1.2464 -3.939355,1.2464 -2.465509,0 -3.975747,-1.2464 -1.510237,-1.2464 -1.510237,-3.51176 v -8.67932 h 3.08416 v 8.67932 q 0,1.21911 0.627749,1.81047 0.62775,0.58226 1.774075,0.58226 1.137227,0 1.746781,-0.58226 0.618652,-0.58226 0.618652,-1.81047 v -8.67932 z"
       style="font-style:normal;font-variant:normal;font-weight:900;font-stretch:normal;font-size:18.63233185px;line-height:1.25;font-family:Roboto;-inkscape-font-specification:'Roboto Heavy';letter-spacing:0px;word-spacing:0px;fill:#f57900;fill-opacity:1;stroke:none;stroke-width:0.35782993px;stroke-linecap:butt;stroke-linejoin:miter;stroke-opacity:1"
       id="path1687" />
  </g>
</svg>
